<?xml version="1.0" encoding="UTF-8" standalone="no"?><!DOCTYPE svg PUBLIC "-//W3C//DTD SVG 1.1//EN" "http://www.w3.org/Graphics/SVG/1.1/DTD/svg11.dtd"><svg width="100%" height="100%" viewBox="0 0 113 60" version="1.1" xmlns="http://www.w3.org/2000/svg" xmlns:xlink="http://www.w3.org/1999/xlink" xml:space="preserve" xmlns:serif="http://www.serif.com/" style="fill-rule:evenodd;clip-rule:evenodd;stroke-linejoin:round;stroke-miterlimit:2;"><rect id="logo-o-clame" serif:id="logo o clame" x="0" y="0" width="112.5" height="59.997" style="fill:none;"/><clipPath id="_clip1"><rect x="0" y="0" width="112.5" height="59.997"/></clipPath><g clip-path="url(#_clip1)"><g id="cbz"><path d="M107.52,59.997l-64.94,0l69.611,-18.708l0,0.023c-0.687,1.249 -1.323,2.527 -1.864,3.854c-1.873,4.599 -2.809,9.534 -2.809,14.806c0,0.01 0.002,0.018 0.002,0.025" style="fill:#cd1e32;fill-rule:nonzero;"/><path d="M28.953,46.212c-1.265,1.37 -2.433,2.431 -3.506,3.185c-1.074,0.755 -2.196,1.288 -3.365,1.601c-2.844,0.763 -5.451,0.469 -7.821,-0.883c-2.372,-1.351 -3.938,-3.453 -4.702,-6.304c-0.805,-3.004 -0.556,-5.667 0.747,-7.992c1.304,-2.324 3.431,-3.883 6.385,-4.675c1.324,-0.355 2.644,-0.475 3.963,-0.36c1.317,0.114 2.778,0.471 4.381,1.07l2.89,-7.862c-2.238,-0.862 -4.489,-1.351 -6.751,-1.466c-2.26,-0.112 -4.57,0.145 -6.927,0.777c-2.49,0.667 -4.709,1.728 -6.657,3.181c-1.948,1.452 -3.539,3.226 -4.772,5.323c-1.314,2.143 -2.146,4.459 -2.497,6.942c-0.349,2.485 -0.194,4.958 0.466,7.419c1.367,5.101 4.246,8.905 8.637,11.415c4.392,2.511 9.209,3.063 14.453,1.658c2.335,-0.626 4.447,-1.576 6.337,-2.851c1.888,-1.273 3.582,-2.903 5.083,-4.889l-6.344,-5.289Zm16.573,-19.771c1.336,-2.372 3.439,-3.944 6.307,-4.712c2.82,-0.756 5.417,-0.438 7.787,0.954c2.37,1.394 3.948,3.551 4.732,6.474c0.748,2.795 0.422,5.441 -0.976,7.936c-1.399,2.496 -3.446,4.104 -6.134,4.825c-2.801,0.749 -5.397,0.41 -7.79,-1.023c-2.393,-1.434 -3.974,-3.591 -4.748,-6.473c-0.789,-2.946 -0.516,-5.605 0.822,-7.981m-0.543,21.603c4.402,2.516 9.254,3.062 14.559,1.64c2.465,-0.66 4.707,-1.738 6.725,-3.233c2.018,-1.495 3.663,-3.298 4.939,-5.409c1.298,-2.114 2.106,-4.4 2.427,-6.856c0.322,-2.454 0.149,-4.925 -0.517,-7.412c-1.367,-5.103 -4.241,-8.888 -8.623,-11.357c-4.379,-2.469 -9.17,-3.007 -14.368,-1.614c-2.116,0.566 -3.927,1.386 -5.435,2.456c-1.507,1.072 -2.703,2.379 -3.587,3.926l-4.39,-16.383l-8.392,2.928l7.931,29.603c1.419,5.292 4.329,9.195 8.731,11.711m67.377,-13.305l-0.511,-8.246l-18.183,4.872l10.506,-31.365l-28.95,7.758l0.186,7.88l16.113,-4.317l-10.555,31.829l31.394,-8.411Z" style="fill:#2c2a29;fill-rule:nonzero;"/></g></g></svg>